<svg width="24" height="22" viewBox="0 0 24 22" fill="none" xmlns="http://www.w3.org/2000/svg">
<path d="M20.2422 9.35808L19.0292 6.64584L20.6595 4.86047L18.4493 2.81395L16.5316 4.33139L13.5402 3.19229L12.8522 0.767442H10.6925L9.99417 3.22441L7.07148 4.36517L5.18791 2.81395L2.97767 4.86047L4.58382 6.69092L3.38933 9.41017L0.767442 9.97674V12.0233L3.42095 12.694L4.65275 15.3997L2.97767 17.1395L5.18791 19.186L7.16735 17.6924L10.0471 18.7893L10.7135 21.2326H12.9237L13.5918 18.7903L16.521 17.667C17.0092 17.9902 18.4493 19.186 18.4493 19.186L20.6595 17.1395L19.0194 15.3482L20.2328 12.6352L22.8697 11.9999L22.8698 9.97674L20.2422 9.35808Z" stroke="black" stroke-width="1.5" stroke-linecap="round" stroke-linejoin="round"/>
</svg>
