<svg width="141" height="141" viewBox="0 0 141 141" fill="none" xmlns="http://www.w3.org/2000/svg">
<g clip-path="url(#clip0_113_43)">
<path d="M70.5 0C85.2879 -6.464e-07 99.7014 4.6501 111.701 13.2924C123.701 21.9346 132.679 34.1314 137.366 48.1571C142.052 62.1827 142.21 77.3269 137.816 91.447C133.422 105.567 124.7 117.948 112.882 126.838L70.5 70.5V0Z" fill="#FD6483"/>
<path d="M112.882 126.838C105.04 132.738 96.052 136.935 86.494 139.162C76.936 141.388 67.0184 141.595 57.3761 139.768C47.7337 137.941 38.579 134.121 30.4979 128.552C22.4167 122.984 15.5872 115.79 10.4464 107.43L70.5 70.5L112.882 126.838Z" fill="#33A4EA"/>
<path d="M10.4464 107.43C2.70009 94.8332 -0.889049 80.1196 0.186831 65.3708C1.26271 50.6221 6.94913 36.5851 16.4415 25.2459L70.5 70.5L10.4464 107.43Z" fill="#FFCE57"/>
<path d="M16.4415 25.2459C22.7411 17.7208 30.5424 11.5937 39.3461 7.25696L70.5 70.5L16.4415 25.2459Z" fill="#4CC0BF"/>
<path d="M39.3461 7.25696C43.736 5.09446 48.3391 3.39491 53.0811 2.1858L70.5 70.5L39.3461 7.25696Z" fill="#9966FF"/>
<path d="M53.0811 2.1858C58.6777 0.758754 64.4285 0.0248621 70.2041 0.000620953L70.5 70.5L53.0811 2.1858Z" fill="#FFA03B"/>
</g>
<defs>
<clipPath id="clip0_113_43">
<rect width="141" height="141" fill="white"/>
</clipPath>
</defs>
</svg>
