<svg width="27" height="24" viewBox="0 0 27 24" fill="none" xmlns="http://www.w3.org/2000/svg">
<path d="M23.6608 9.25124L25.5984 19.8527C25.8592 21.2798 24.5474 22.5668 22.8322 22.5668H4.16762C2.45228 22.5668 1.14054 21.2798 1.40137 19.8527L3.33899 9.25124C3.54905 8.10196 4.72385 7.25358 6.10525 7.25358H20.8946C22.2759 7.25358 23.4507 8.10196 23.6608 9.25124Z" fill="black" fill-opacity="0.5" stroke="black" stroke-width="2.67106" stroke-linecap="round" stroke-linejoin="round"/>
<path d="M16.2986 3.71972C16.2986 2.4186 15.0455 1.36383 13.4998 1.36383C11.954 1.36383 10.701 2.4186 10.701 3.71972" fill="black" fill-opacity="0.5"/>
<path d="M16.2986 3.71972C16.2986 2.4186 15.0455 1.36383 13.4998 1.36383C11.954 1.36383 10.701 2.4186 10.701 3.71972" stroke="black" stroke-width="2.67106" stroke-linecap="round" stroke-linejoin="round"/>
</svg>
