<svg width="25" height="22" viewBox="0 0 25 22" fill="none" xmlns="http://www.w3.org/2000/svg">
<path d="M21.1078 9.35808L19.8408 6.64584L21.5436 4.86047L19.2352 2.81395L17.2322 4.33139L14.1078 3.19229L13.3893 0.767442H11.1336L10.4042 3.22441L7.35166 4.36517L5.38437 2.81395L3.07591 4.86047L4.75343 6.69092L3.50586 9.41017L0.767442 9.97674V12.0233L3.53888 12.694L4.82543 15.3997L3.07591 17.1395L5.38437 19.186L7.45179 17.6924L10.4595 18.7893L11.1555 21.2326H13.464L14.1617 18.7903L17.2211 17.667C17.7311 17.9902 19.2352 19.186 19.2352 19.186L21.5436 17.1395L19.8306 15.3482L21.098 12.6352L23.852 11.9999L23.8521 9.97674L21.1078 9.35808Z" stroke="black" stroke-width="1.5" stroke-linecap="round" stroke-linejoin="round"/>
</svg>
