<svg width="29" height="31" viewBox="0 0 29 31" fill="none" xmlns="http://www.w3.org/2000/svg">
<path d="M9.90984 30.2377H6.86066C3.49262 30.2377 0.762295 27.1904 0.762295 23.4315V12.7247C0.762295 10.3447 1.87618 8.13759 3.69986 6.90404L11.3228 1.74784C13.2656 0.433774 15.7016 0.433774 17.6444 1.74784L25.2673 6.90404C27.0911 8.13759 28.2049 10.3447 28.2049 12.7247V23.4315C28.2049 27.1904 25.4745 30.2377 22.1066 30.2377H19.0574M9.90984 30.2377V23.4315C9.90984 20.6122 11.9575 18.3269 14.4836 18.3269C17.0097 18.3269 19.0574 20.6122 19.0574 23.4315V30.2377M9.90984 30.2377H19.0574" stroke="black" stroke-width="1.5" stroke-linecap="round" stroke-linejoin="round"/>
</svg>
