<svg width="24" height="22" viewBox="0 0 24 22" fill="none" xmlns="http://www.w3.org/2000/svg">
<path d="M20.3865 9.35808L19.1644 6.64584L20.8069 4.86047L18.5803 2.81395L16.6484 4.33139L13.6348 3.19229L12.9417 0.767442H10.766L10.0625 3.22441L7.11818 4.36517L5.22065 2.81395L2.99405 4.86047L4.61209 6.69092L3.40875 9.41017L0.767442 9.97674V12.0233L3.4406 12.694L4.68153 15.3997L2.99405 17.1395L5.22065 19.186L7.21475 17.6924L10.1158 18.7893L10.7872 21.2326H13.0138L13.6868 18.7903L16.6377 17.667C17.1295 17.9902 18.5803 19.186 18.5803 19.186L20.8069 17.1395L19.1546 15.3482L20.377 12.6352L23.0334 11.9999L23.0335 9.97674L20.3865 9.35808Z" stroke="black" stroke-width="1.5" stroke-linecap="round" stroke-linejoin="round"/>
</svg>
